<svg width="40" height="69" viewBox="0 0 40 69" fill="none" xmlns="http://www.w3.org/2000/svg">
<path d="M19.5372 1.36669C19.9003 1.13007 20.7547 0.699831 21.4596 0.44169C22.5062 0.0329666 23.1043 -0.0315687 24.6636 0.0114548C26.3297 0.0544783 26.7783 0.140525 27.9745 0.721342C28.8289 1.15158 29.726 1.79693 30.3027 2.44228C30.8154 3.0231 31.4562 3.99113 31.7339 4.57194C32.0116 5.17427 32.3533 6.27137 32.4815 7.04579C32.6737 8.12138 32.6737 8.76673 32.4815 9.84232C32.332 10.6167 31.9689 11.7354 31.6698 12.3162C31.3494 12.9185 30.5804 13.9296 29.9183 14.5964C29.2561 15.2418 27.8036 16.4034 26.6929 17.1563C25.5821 17.8877 23.8519 19.1139 22.848 19.8453C21.8441 20.5982 20.7761 21.5662 20.4557 22.018C20.1353 22.4912 19.8362 23.1151 19.7721 23.4593C19.6443 24.0387 19.6227 24.0401 17.5864 24.1682L17.572 24.1691C16.3545 24.2552 14.5816 24.2122 13.3427 24.0616C11.7834 23.8895 10.8435 23.6529 9.88232 23.1796C9.13471 22.8139 8.04533 22.061 7.46861 21.4587C6.87052 20.8778 6.12291 19.7807 5.75978 19.0493C5.35394 18.1889 5.07625 17.1778 4.99081 16.2958C4.90537 15.4999 4.94809 14.4028 5.09761 13.779C5.22578 13.1551 5.54618 12.1871 5.8025 11.6278C6.08019 11.0685 6.76372 10.0789 7.3618 9.45511C8.00261 8.76673 8.94247 8.03533 9.71144 7.66963C10.4377 7.30393 11.6125 6.93824 12.3815 6.85219C13.1504 6.74463 14.1971 6.74463 14.7311 6.85219C15.2651 6.93824 15.7564 7.02428 15.8418 7.04579C15.9486 7.04579 16.1195 6.63707 16.2477 6.1423C16.3758 5.62602 16.6749 4.8516 16.8885 4.39985C17.1021 3.96962 17.6575 3.19519 18.0847 2.72193C18.5332 2.22716 19.174 1.62484 19.5372 1.36669Z" fill="#F2F3F6"/>
<path fill-rule="evenodd" clip-rule="evenodd" d="M16.9735 25.5671C17.6786 25.4381 19.4085 25.3956 20.8181 25.4386C22.6978 25.5031 23.8942 25.6748 25.304 26.0835C26.3719 26.3632 27.9096 26.9443 28.7213 27.3315C29.5329 27.7186 30.7932 28.4499 31.4981 28.9232C32.203 29.3964 33.442 30.4504 34.2537 31.2678C35.0653 32.0852 36.112 33.333 36.582 34.0429C37.0732 34.7528 37.8213 36.108 38.2485 37.0545C38.697 38.001 39.2732 39.6576 39.5295 40.7117C39.8927 42.2175 40 43.2716 40 45.4443C40 47.6385 39.8927 48.6064 39.5295 49.9616C39.2732 50.9081 38.697 52.4571 38.2485 53.4036C37.7999 54.3501 36.8173 55.9419 36.0697 56.9529C35.3434 57.964 34.0402 59.4487 33.2071 60.2877C32.3528 61.1266 30.9216 62.3953 29.9818 63.1267C29.0633 63.858 27.4184 65.0196 26.3718 65.6865C25.3038 66.3749 23.5099 67.3864 22.3564 67.9672C21.2243 68.5265 20.1345 68.9999 19.9636 68.9999C19.7922 68.9996 18.6176 68.4618 17.3363 67.8166C16.0761 67.1713 14.1749 66.0737 13.1283 65.3853C12.0602 64.6969 10.4796 63.5353 9.60392 62.8255C8.72814 62.1156 7.12617 60.6102 6.07959 59.4701C5.0116 58.3516 3.6444 56.6091 3.04629 55.641C2.42689 54.6516 1.63656 53.1458 1.29475 52.3283C0.974367 51.5109 0.525618 50.048 0.312 49.1015C0.012966 47.7248 -0.0504921 46.778 0.0349368 44.3689C0.120372 42.0673 0.269885 40.9916 0.632955 39.8515C0.889262 39.0341 1.4015 37.7217 1.74327 36.9472C2.08501 36.1728 2.79014 34.9253 3.30278 34.1508C3.8154 33.3765 4.94744 32.0642 5.80184 31.2252C6.6562 30.3863 7.98042 29.2889 8.74941 28.7726C9.51838 28.2563 10.715 27.5682 11.4199 27.2455C12.1248 26.9228 13.3637 26.4709 14.1967 26.2128C15.0084 25.9762 16.2687 25.6747 16.9735 25.5671ZM21.0102 38.4743C20.4334 38.3883 19.5148 38.3883 18.9809 38.4743C18.4682 38.5389 17.5072 38.8404 16.8666 39.12C16.2257 39.4211 15.2643 40.0882 14.7303 40.6044C14.2177 41.1423 13.5556 42.1099 13.2352 42.7552C12.7867 43.7447 12.701 44.2613 12.701 45.8747C12.701 47.5093 12.7867 48.0042 13.2565 48.9935C13.5555 49.6389 14.2389 50.6074 14.7515 51.1236C15.2642 51.6399 16.1615 52.3066 16.7596 52.5648C17.3363 52.8445 18.4471 53.1886 19.2161 53.3177C20.2627 53.4898 20.8395 53.468 21.5657 53.2744C22.0997 53.1238 22.9117 52.8228 23.3817 52.5861C23.8516 52.3709 24.6632 51.7689 25.1545 51.2742C25.6671 50.801 26.308 49.9618 26.5857 49.424C26.8634 48.8862 27.1837 47.8751 27.3333 47.1653C27.5255 46.1543 27.5254 45.5949 27.3333 44.5841C27.1837 43.8742 26.8421 42.8625 26.5857 42.3247C26.3293 41.7869 25.6241 40.9268 25.0687 40.4105C24.492 39.8728 23.5947 39.2491 23.0607 39.034C22.5267 38.7974 21.6082 38.5388 21.0102 38.4743Z" fill="#F2F3F6"/>
</svg>
