<svg width="24" height="24" viewBox="0 0 24 24" fill="none" xmlns="http://www.w3.org/2000/svg">
  <mask id="mask0_kakao" style="mask-type:alpha" maskUnits="userSpaceOnUse" x="3" y="4" width="18" height="16">
    <path d="M11.7079 4C6.89855 4 3 7.08198 3 10.8841C3 13.3586 4.65187 15.5279 7.13122 16.7412C6.94889 17.4211 6.47153 19.2047 6.37617 19.5861C6.25788 20.0595 6.54927 20.0537 6.74055 19.9261C6.89044 19.8263 9.12649 18.3056 10.0916 17.6493C10.6153 17.727 11.1556 17.7681 11.7079 17.7681C16.5173 17.7681 20.4158 14.6861 20.4158 10.8841C20.4158 7.08198 16.5173 4 11.7079 4Z" fill="white"/>
  </mask>
  <g mask="url(#mask0_kakao)">
    <path d="M11.7079 4C6.89855 4 3 7.08198 3 10.8841C3 13.3586 4.65187 15.5279 7.13122 16.7412C6.94889 17.4211 6.47153 19.2047 6.37617 19.5861C6.25788 20.0595 6.54927 20.0537 6.74055 19.9261C6.89044 19.8263 9.12649 18.3056 10.0916 17.6493C10.6153 17.727 11.1556 17.7681 11.7079 17.7681C16.5173 17.7681 20.4158 14.6861 20.4158 10.8841C20.4158 7.08198 16.5173 4 11.7079 4Z" fill="#212224"/>
  </g>
</svg>
